<svg xmlns="http://www.w3.org/2000/svg" viewBox="0 0 39 39" id="whatsapp">
  <path d="M32.47 38.651H6.273C2.814 38.651 0 35.843 0 32.391V6.26C0 2.808 2.814 0 6.273 0H32.47c3.458 0 6.272 2.808 6.272 6.26v26.132c0 3.452-2.814 6.259-6.272 6.259ZM13.73 27.568l-5.282 1.368 1.978-5.17-.194-.423a10.502 10.502 0 0 1 2.661-12.293c4.376-3.804 11.006-3.34 14.81 1.035 3.804 4.376 3.34 11.006-1.036 14.81a10.502 10.502 0 0 1-12.544.924l-.392-.251Zm-2.559-18.5A13.127 13.127 0 0 0 7.656 24l-2.704 7.976 8.163-1.696a13.127 13.127 0 0 0 15.274-1.403c5.47-4.755 6.05-13.043 1.295-18.513C24.929 4.893 16.64 4.314 11.17 9.07Zm14.073 12.833-.2-.118c-.53-.33-1.72-1.039-1.956-1.145-.484-.23-.847-.22-1.193.215-.158.2-.596.645-.986 1.022-.034.033.01.031-.1-.038-1.94-1.191-2.691-1.919-3.494-3.618.147-.127.618-.584.87-.961.033-.05.066-.1.097-.151.18-.3.174-.594.053-.902-.197-.498-1.837-3.097-2.246-3.133a1.513 1.513 0 0 0-1.141.406c.022-.02-.165.15-.232.213a3.97 3.97 0 0 0-.323.346c-.45.546-.744 1.218-.819 2.07-.066.755.112 1.551.452 2.352.178.418.318.675.533 1.03-.12-.188.316.544.56.914.41.622.876 1.237 1.406 1.823.847.937 1.778 1.71 2.794 2.26 1.709.922 2.537 1.155 3.668 1.087.846-.051 2.116-.718 2.458-1.47.31-.682.44-1.429.283-1.747-.05-.122-.15-.23-.294-.333a2.682 2.682 0 0 0-.19-.122Z" fill="#fff" class="color000000 svgShape"></path>
</svg>
